<mxfile host="app.diagrams.net" modified="2024-07-23T06:19:43.294Z" agent="Mozilla/5.0 (Windows NT 10.0; Win64; x64) AppleWebKit/537.36 (KHTML, like Gecko) Chrome/123.0.0.0 Safari/537.36 OPR/109.0.0.0" version="24.7.3" etag="JA1wojC4yteqVLsSXKEB" type="github">
  <diagram name="Page-1" id="ggoHsy6cRC2JKE2LYJmg">
    <mxGraphModel>
      <root>
        <mxCell id="0" />
        <mxCell id="1" parent="0" />
      </root>
    </mxGraphModel>
  </diagram>
</mxfile>
